<svg version="1.1" id="Layer_1" xmlns="http://www.w3.org/2000/svg" xmlns:xlink="http://www.w3.org/1999/xlink" x="0px" y="0px"
	 width="100%" viewBox="0 0 2560 2560" enable-background="new 0 0 2560 2560" xml:space="preserve">
<path fill="#FFFFFF" opacity="1.000000" stroke="none" 
	d="
M1418.000000,2562.000000 
	C945.333313,2562.000000 473.666656,2562.000000 2.000000,2562.000000 
	C2.000000,1708.666626 2.000000,855.333313 2.000000,2.000000 
	C855.333313,2.000000 1708.666626,2.000000 2562.000000,2.000000 
	C2562.000000,855.333313 2562.000000,1708.666626 2562.000000,2562.000000 
	C2181.000000,2562.000000 1800.000000,2562.000000 1418.000000,2562.000000 
M687.611206,290.593536 
	C575.646362,358.250885 477.359283,441.953247 394.000488,542.792053 
	C244.233505,723.964661 157.069046,931.658936 132.568146,1165.447510 
	C125.677864,1231.194702 124.589638,1297.098145 129.550323,1363.133545 
	C134.629639,1430.747925 144.589737,1497.520874 161.314697,1563.218994 
	C218.794479,1789.008301 333.118134,1981.280151 505.802948,2137.453369 
	C715.551819,2327.146729 963.043579,2426.511230 1245.614990,2437.471436 
	C1346.336670,2441.377930 1446.021484,2431.542236 1544.206543,2408.354004 
	C1786.536255,2351.122314 1990.542236,2229.108643 2154.033936,2041.646118 
	C2327.960449,1842.218750 2421.776367,1609.025879 2437.369629,1344.849609 
	C2443.828125,1235.433472 2434.614746,1127.009521 2409.349121,1020.265625 
	C2354.029297,786.550232 2238.087891,587.834167 2060.248779,426.544159 
	C1862.868652,247.531891 1630.119141,148.897324 1364.414917,128.570206 
	C1270.920410,121.417610 1177.869019,126.568336 1085.511963,142.536850 
	C944.182434,166.972717 811.937195,216.123337 687.611206,290.593536 
z"/>
<path fill="#000000" opacity="1.000000" stroke="none" 
	d="
M688.247559,290.239563 
	C811.937195,216.123337 944.182434,166.972717 1085.511963,142.536850 
	C1177.869019,126.568336 1270.920410,121.417610 1364.414917,128.570206 
	C1630.119141,148.897324 1862.868652,247.531891 2060.248779,426.544159 
	C2238.087891,587.834167 2354.029297,786.550232 2409.349121,1020.265625 
	C2434.614746,1127.009521 2443.828125,1235.433472 2437.369629,1344.849609 
	C2421.776367,1609.025879 2327.960449,1842.218750 2154.033936,2041.646118 
	C1990.542236,2229.108643 1786.536255,2351.122314 1544.206543,2408.354004 
	C1446.021484,2431.542236 1346.336670,2441.377930 1245.614990,2437.471436 
	C963.043579,2426.511230 715.551819,2327.146729 505.802948,2137.453369 
	C333.118134,1981.280151 218.794479,1789.008301 161.314697,1563.218994 
	C144.589737,1497.520874 134.629639,1430.747925 129.550323,1363.133545 
	C124.589638,1297.098145 125.677864,1231.194702 132.568146,1165.447510 
	C157.069046,931.658936 244.233505,723.964661 394.000488,542.792053 
	C477.359283,441.953247 575.646362,358.250885 688.247559,290.239563 
M646.005493,656.356018 
	C650.127197,669.903748 657.898315,680.716797 669.645508,688.778748 
	C681.488831,696.906677 694.687622,698.688232 708.650574,698.670654 
	C860.304260,698.479431 1011.958130,698.442627 1163.611938,698.364136 
	C1168.159790,698.361755 1172.707642,698.363892 1177.255371,698.363892 
	C1168.664917,701.167725 1159.905518,702.676147 1151.110107,703.930420 
	C1083.187866,713.615906 1015.256958,723.241577 947.331787,732.906921 
	C883.674561,741.965088 820.017212,751.022888 756.367981,760.136780 
	C735.264648,763.158508 713.990967,765.402527 693.139648,769.680908 
	C657.206116,777.053894 637.887634,816.618713 652.985840,849.998474 
	C664.110657,874.593689 688.208679,887.378235 717.099854,883.616150 
	C736.920654,881.035095 756.680847,877.988892 776.469116,875.157593 
	C844.079773,865.483704 911.688232,855.794556 979.302551,846.146057 
	C1047.904541,836.356567 1116.511108,826.599915 1185.118408,816.847412 
	C1203.854614,814.184143 1222.600220,811.587708 1241.793213,808.897217 
	C1242.623413,811.670532 1243.476318,813.777283 1243.875732,815.966797 
	C1248.948242,843.783813 1260.855225,868.386475 1278.578125,890.297729 
	C1283.185913,895.994385 1288.088989,901.525391 1292.061646,907.648193 
	C1302.509521,923.750977 1302.568848,940.293213 1292.119019,956.389038 
	C1287.601929,963.346619 1282.101929,969.686768 1276.837524,976.135315 
	C1235.401367,1026.891235 1229.344604,1101.371582 1262.077148,1158.090698 
	C1263.337036,1160.273926 1264.357178,1162.595581 1265.956177,1165.783936 
	C1261.243530,1165.783936 1257.655884,1165.783936 1254.068359,1165.783936 
	C1103.747803,1165.784058 953.427124,1165.738647 803.106628,1165.878418 
	C792.156921,1165.888550 781.084351,1166.436157 770.279541,1168.100952 
	C697.973206,1179.242432 643.995300,1246.908691 649.311890,1319.958984 
	C650.542114,1336.862915 653.140198,1353.710693 655.910767,1370.451660 
	C667.513855,1440.562866 688.526611,1507.670532 720.751587,1571.149048 
	C758.239014,1644.994019 808.692139,1708.352661 873.291748,1760.335571 
	C924.136841,1801.250488 980.637390,1831.972290 1041.891235,1854.171631 
	C1045.294800,1855.405151 1048.666748,1856.726196 1052.404297,1858.139282 
	C1052.404297,1861.900269 1052.401855,1865.209717 1052.404541,1868.519165 
	C1052.420044,1887.517456 1052.102173,1906.523193 1052.533081,1925.512085 
	C1053.146606,1952.537842 1070.358276,1974.503906 1096.158447,1980.952026 
	C1103.154785,1982.700684 1110.681152,1982.842285 1117.965088,1982.849487 
	C1229.955444,1982.960327 1341.946045,1982.931030 1453.936523,1982.911011 
	C1458.265869,1982.910156 1462.609863,1982.860107 1466.921997,1982.518066 
	C1479.661377,1981.507080 1490.670166,1976.467285 1500.117065,1967.898560 
	C1513.534180,1955.729004 1519.552368,1940.360352 1519.624878,1922.501343 
	C1519.711304,1901.191040 1519.645264,1879.880249 1519.645264,1858.376953 
	C1532.119141,1853.494995 1544.282349,1849.024902 1556.220581,1844.018555 
	C1705.414673,1781.454224 1809.692993,1674.274292 1871.979248,1525.561768 
	C1897.756592,1464.016846 1913.056274,1399.699463 1921.637207,1333.685303 
	C1930.901978,1262.410889 1892.100342,1197.297363 1825.371094,1174.602295 
	C1811.914062,1170.025635 1803.524658,1163.890015 1798.368042,1150.682739 
	C1791.889526,1134.090576 1779.925537,1120.619141 1768.511963,1107.182007 
	C1755.158203,1091.460693 1754.127319,1065.828491 1768.454590,1049.226929 
	C1771.935059,1045.194092 1775.052734,1040.850830 1778.458374,1036.750977 
	C1824.757446,981.012024 1829.120483,901.424927 1788.841309,841.375977 
	C1782.363770,831.718933 1774.887207,822.699036 1767.488647,813.700134 
	C1754.620117,798.048462 1755.032104,772.958130 1767.879150,758.248291 
	C1771.820435,753.735413 1775.411987,748.917725 1779.186646,744.258118 
	C1804.255127,713.311584 1816.972290,677.995117 1816.282959,638.105103 
	C1815.845947,612.829102 1797.992188,590.080383 1773.353516,584.305237 
	C1764.090942,582.134094 1754.240234,581.773438 1744.657227,581.770081 
	C1400.353027,581.649353 1056.048828,581.668701 711.744568,581.669739 
	C708.411560,581.669800 705.076477,581.612061 701.745850,581.705872 
	C663.315552,582.788147 636.956116,617.138672 646.005493,656.356018 
z"/>
<path fill="#FEFEFE" opacity="1.000000" stroke="none" 
	d="
M645.852112,655.537231 
	C636.956116,617.138672 663.315552,582.788147 701.745850,581.705872 
	C705.076477,581.612061 708.411560,581.669800 711.744568,581.669739 
	C1056.048828,581.668701 1400.353027,581.649353 1744.657227,581.770081 
	C1754.240234,581.773438 1764.090942,582.134094 1773.353516,584.305237 
	C1797.992188,590.080383 1815.845947,612.829102 1816.282959,638.105103 
	C1816.972290,677.995117 1804.255127,713.311584 1779.186646,744.258118 
	C1775.411987,748.917725 1771.820435,753.735413 1767.879150,758.248291 
	C1755.032104,772.958130 1754.620117,798.048462 1767.488647,813.700134 
	C1774.887207,822.699036 1782.363770,831.718933 1788.841309,841.375977 
	C1829.120483,901.424927 1824.757446,981.012024 1778.458374,1036.750977 
	C1775.052734,1040.850830 1771.935059,1045.194092 1768.454590,1049.226929 
	C1754.127319,1065.828491 1755.158203,1091.460693 1768.511963,1107.182007 
	C1779.925537,1120.619141 1791.889526,1134.090576 1798.368042,1150.682739 
	C1803.524658,1163.890015 1811.914062,1170.025635 1825.371094,1174.602295 
	C1892.100342,1197.297363 1930.901978,1262.410889 1921.637207,1333.685303 
	C1913.056274,1399.699463 1897.756592,1464.016846 1871.979248,1525.561768 
	C1809.692993,1674.274292 1705.414673,1781.454224 1556.220581,1844.018555 
	C1544.282349,1849.024902 1532.119141,1853.494995 1519.645264,1858.376953 
	C1519.645264,1879.880249 1519.711304,1901.191040 1519.624878,1922.501343 
	C1519.552368,1940.360352 1513.534180,1955.729004 1500.117065,1967.898560 
	C1490.670166,1976.467285 1479.661377,1981.507080 1466.921997,1982.518066 
	C1462.609863,1982.860107 1458.265869,1982.910156 1453.936523,1982.911011 
	C1341.946045,1982.931030 1229.955444,1982.960327 1117.965088,1982.849487 
	C1110.681152,1982.842285 1103.154785,1982.700684 1096.158447,1980.952026 
	C1070.358276,1974.503906 1053.146606,1952.537842 1052.533081,1925.512085 
	C1052.102173,1906.523193 1052.420044,1887.517456 1052.404541,1868.519165 
	C1052.401855,1865.209717 1052.404297,1861.900269 1052.404297,1858.139282 
	C1048.666748,1856.726196 1045.294800,1855.405151 1041.891235,1854.171631 
	C980.637390,1831.972290 924.136841,1801.250488 873.291748,1760.335571 
	C808.692139,1708.352661 758.239014,1644.994019 720.751587,1571.149048 
	C688.526611,1507.670532 667.513855,1440.562866 655.910767,1370.451660 
	C653.140198,1353.710693 650.542114,1336.862915 649.311890,1319.958984 
	C643.995300,1246.908691 697.973206,1179.242432 770.279541,1168.100952 
	C781.084351,1166.436157 792.156921,1165.888550 803.106628,1165.878418 
	C953.427124,1165.738647 1103.747803,1165.784058 1254.068359,1165.783936 
	C1257.655884,1165.783936 1261.243530,1165.783936 1265.956177,1165.783936 
	C1264.357178,1162.595581 1263.337036,1160.273926 1262.077148,1158.090698 
	C1229.344604,1101.371582 1235.401367,1026.891235 1276.837524,976.135315 
	C1282.101929,969.686768 1287.601929,963.346619 1292.119019,956.389038 
	C1302.568848,940.293213 1302.509521,923.750977 1292.061646,907.648193 
	C1288.088989,901.525391 1283.185913,895.994385 1278.578125,890.297729 
	C1260.855225,868.386475 1248.948242,843.783813 1243.875732,815.966797 
	C1243.476318,813.777283 1242.623413,811.670532 1241.793213,808.897217 
	C1222.600220,811.587708 1203.854614,814.184143 1185.118408,816.847412 
	C1116.511108,826.599915 1047.904541,836.356567 979.302551,846.146057 
	C911.688232,855.794556 844.079773,865.483704 776.469116,875.157593 
	C756.680847,877.988892 736.920654,881.035095 717.099854,883.616150 
	C688.208679,887.378235 664.110657,874.593689 652.985840,849.998474 
	C637.887634,816.618713 657.206116,777.053894 693.139648,769.680908 
	C713.990967,765.402527 735.264648,763.158508 756.367981,760.136780 
	C820.017212,751.022888 883.674561,741.965088 947.331787,732.906921 
	C1015.256958,723.241577 1083.187866,713.615906 1151.110107,703.930420 
	C1159.905518,702.676147 1168.664917,701.167725 1177.255371,698.363892 
	C1172.707642,698.363892 1168.159790,698.361755 1163.611938,698.364136 
	C1011.958130,698.442627 860.304260,698.479431 708.650574,698.670654 
	C694.687622,698.688232 681.488831,696.906677 669.645508,688.778748 
	C657.898315,680.716797 650.127197,669.903748 645.852112,655.537231 
M776.670471,1380.218140 
	C787.714783,1429.854736 803.979797,1477.606445 827.954590,1522.589478 
	C884.607422,1628.885132 969.265015,1703.113770 1082.451416,1744.504883 
	C1098.064087,1750.214233 1114.327759,1754.144775 1129.937012,1759.862671 
	C1151.711792,1767.838989 1165.190186,1783.518921 1168.165527,1806.773926 
	C1169.594849,1817.945923 1169.131104,1829.370117 1169.349854,1840.683594 
	C1169.508911,1848.903809 1169.380981,1857.129395 1169.380981,1865.631836 
	C1247.586182,1865.631836 1324.714478,1865.631836 1402.641357,1865.631836 
	C1402.641357,1861.861450 1402.640991,1858.602295 1402.641357,1855.343262 
	C1402.642578,1843.012939 1402.568848,1830.681885 1402.667847,1818.352295 
	C1402.756958,1807.235962 1404.421753,1796.463257 1410.070679,1786.604248 
	C1418.635376,1771.656860 1431.310425,1762.230469 1447.887207,1757.715210 
	C1477.500122,1749.649048 1506.266113,1739.312500 1533.970825,1725.980713 
	C1607.028076,1690.824585 1666.743408,1640.041382 1713.000244,1573.503784 
	C1746.587524,1525.190674 1770.286865,1472.264526 1786.242432,1415.705566 
	C1795.216064,1383.895752 1801.503418,1351.584717 1805.728638,1318.854370 
	C1808.553833,1296.968506 1796.128296,1282.879150 1774.005005,1282.372314 
	C1773.005737,1282.349487 1772.005615,1282.364746 1771.005859,1282.364746 
	C1447.750854,1282.364380 1124.495728,1282.362671 801.240723,1282.385498 
	C797.918518,1282.385742 794.548401,1282.411987 791.282227,1282.935059 
	C775.025269,1285.538452 765.420532,1297.130737 765.917725,1313.509155 
	C766.028503,1317.158813 766.464233,1320.824219 767.067688,1324.429199 
	C770.090454,1342.487549 773.218750,1360.528198 776.670471,1380.218140 
M1609.693237,885.701294 
	C1621.928467,930.550049 1617.769165,973.583801 1594.039185,1013.845154 
	C1586.476440,1026.676514 1576.772705,1038.282349 1567.667114,1050.156494 
	C1560.643433,1059.316040 1557.420654,1069.306030 1558.024780,1080.837769 
	C1558.535156,1090.581299 1561.987549,1098.976685 1568.076782,1106.379272 
	C1582.718506,1124.178711 1596.042480,1142.812866 1605.282593,1164.092651 
	C1605.524048,1164.648682 1606.229736,1165.003296 1606.635742,1165.375488 
	C1626.236084,1165.375488 1645.746216,1165.375488 1665.074097,1165.375488 
	C1665.378052,1164.642822 1665.692505,1164.257568 1665.602417,1164.040161 
	C1665.099487,1162.827637 1664.557373,1161.623413 1663.922729,1160.474731 
	C1630.614624,1100.196289 1633.847290,1041.389771 1671.370728,984.181458 
	C1676.829712,975.858704 1683.478271,968.291748 1689.829956,960.584045 
	C1703.508301,943.985107 1702.709473,918.966187 1689.984985,904.289734 
	C1686.715576,900.518738 1683.854492,896.396484 1680.640869,892.574280 
	C1652.322021,858.892029 1639.335938,820.104919 1641.967773,776.174744 
	C1642.439209,768.304993 1643.546021,760.473328 1644.382935,752.396301 
	C1642.963623,752.162720 1642.013184,751.773010 1641.134277,751.895630 
	C1617.058594,755.256226 1593.000732,758.747681 1568.910034,761.995483 
	C1564.891235,762.537231 1563.237061,764.986084 1561.893921,768.138062 
	C1556.197388,781.504211 1556.032837,794.823181 1563.598511,807.427124 
	C1567.688843,814.241394 1572.725830,820.548218 1577.804565,826.696777 
	C1591.978394,843.857056 1602.567017,862.910339 1609.693237,885.701294 
M1423.191895,1165.801880 
	C1437.261719,1165.801880 1451.331421,1165.801880 1466.556152,1165.801880 
	C1464.972656,1162.730957 1464.281860,1161.270996 1463.488037,1159.869507 
	C1433.229492,1106.447266 1433.588135,1052.499390 1462.231812,998.907288 
	C1469.844360,984.664185 1480.870361,972.217896 1490.568848,959.124329 
	C1503.303711,941.931396 1503.383057,921.776001 1490.359985,904.626953 
	C1485.727417,898.526428 1480.864502,892.601257 1476.129517,886.578003 
	C1458.684937,864.386719 1447.386230,839.486694 1443.607910,811.427124 
	C1442.242554,801.286682 1441.685791,791.037415 1440.712891,780.318481 
	C1413.535034,784.249695 1386.575806,788.149231 1359.667236,792.041443 
	C1360.441895,802.344666 1362.609741,808.162048 1368.878906,816.250305 
	C1372.141724,820.459900 1375.715576,824.427612 1379.126099,828.523560 
	C1428.475708,887.787231 1428.359985,976.546509 1378.920532,1035.901611 
	C1374.235229,1041.526733 1369.798340,1047.367065 1365.420654,1053.237671 
	C1360.270996,1060.143677 1358.258545,1068.007202 1357.975342,1076.616943 
	C1357.594604,1088.185059 1361.380615,1097.924683 1368.213989,1107.148071 
	C1378.501343,1121.033569 1388.278564,1135.310913 1397.869873,1149.690430 
	C1401.131592,1154.580688 1403.175171,1160.283447 1405.866577,1165.801880 
	C1411.330811,1165.801880 1416.299316,1165.801880 1423.191895,1165.801880 
z"/>
<path fill="#010101" opacity="1.000000" stroke="none" 
	d="
M776.490234,1379.396606 
	C773.218750,1360.528198 770.090454,1342.487549 767.067688,1324.429199 
	C766.464233,1320.824219 766.028503,1317.158813 765.917725,1313.509155 
	C765.420532,1297.130737 775.025269,1285.538452 791.282227,1282.935059 
	C794.548401,1282.411987 797.918518,1282.385742 801.240723,1282.385498 
	C1124.495728,1282.362671 1447.750854,1282.364380 1771.005859,1282.364746 
	C1772.005615,1282.364746 1773.005737,1282.349487 1774.005005,1282.372314 
	C1796.128296,1282.879150 1808.553833,1296.968506 1805.728638,1318.854370 
	C1801.503418,1351.584717 1795.216064,1383.895752 1786.242432,1415.705566 
	C1770.286865,1472.264526 1746.587524,1525.190674 1713.000244,1573.503784 
	C1666.743408,1640.041382 1607.028076,1690.824585 1533.970825,1725.980713 
	C1506.266113,1739.312500 1477.500122,1749.649048 1447.887207,1757.715210 
	C1431.310425,1762.230469 1418.635376,1771.656860 1410.070679,1786.604248 
	C1404.421753,1796.463257 1402.756958,1807.235962 1402.667847,1818.352295 
	C1402.568848,1830.681885 1402.642578,1843.012939 1402.641357,1855.343262 
	C1402.640991,1858.602295 1402.641357,1861.861450 1402.641357,1865.631836 
	C1324.714478,1865.631836 1247.586182,1865.631836 1169.380981,1865.631836 
	C1169.380981,1857.129395 1169.508911,1848.903809 1169.349854,1840.683594 
	C1169.131104,1829.370117 1169.594849,1817.945923 1168.165527,1806.773926 
	C1165.190186,1783.518921 1151.711792,1767.838989 1129.937012,1759.862671 
	C1114.327759,1754.144775 1098.064087,1750.214233 1082.451416,1744.504883 
	C969.265015,1703.113770 884.607422,1628.885132 827.954590,1522.589478 
	C803.979797,1477.606445 787.714783,1429.854736 776.490234,1379.396606 
z"/>
<path fill="#030303" opacity="1.000000" stroke="none" 
	d="
M1609.431885,884.936035 
	C1602.567017,862.910339 1591.978394,843.857056 1577.804565,826.696777 
	C1572.725830,820.548218 1567.688843,814.241394 1563.598511,807.427124 
	C1556.032837,794.823181 1556.197388,781.504211 1561.893921,768.138062 
	C1563.237061,764.986084 1564.891235,762.537231 1568.910034,761.995483 
	C1593.000732,758.747681 1617.058594,755.256226 1641.134277,751.895630 
	C1642.013184,751.773010 1642.963623,752.162720 1644.382935,752.396301 
	C1643.546021,760.473328 1642.439209,768.304993 1641.967773,776.174744 
	C1639.335938,820.104919 1652.322021,858.892029 1680.640869,892.574280 
	C1683.854492,896.396484 1686.715576,900.518738 1689.984985,904.289734 
	C1702.709473,918.966187 1703.508301,943.985107 1689.829956,960.584045 
	C1683.478271,968.291748 1676.829712,975.858704 1671.370728,984.181458 
	C1633.847290,1041.389771 1630.614624,1100.196289 1663.922729,1160.474731 
	C1664.557373,1161.623413 1665.099487,1162.827637 1665.602417,1164.040161 
	C1665.692505,1164.257568 1665.378052,1164.642822 1665.074097,1165.375488 
	C1645.746216,1165.375488 1626.236084,1165.375488 1606.635742,1165.375488 
	C1606.229736,1165.003296 1605.524048,1164.648682 1605.282593,1164.092651 
	C1596.042480,1142.812866 1582.718506,1124.178711 1568.076782,1106.379272 
	C1561.987549,1098.976685 1558.535156,1090.581299 1558.024780,1080.837769 
	C1557.420654,1069.306030 1560.643433,1059.316040 1567.667114,1050.156494 
	C1576.772705,1038.282349 1586.476440,1026.676514 1594.039185,1013.845154 
	C1617.769165,973.583801 1621.928467,930.550049 1609.431885,884.936035 
z"/>
<path fill="#040404" opacity="1.000000" stroke="none" 
	d="
M1422.229858,1165.801880 
	C1416.299316,1165.801880 1411.330811,1165.801880 1405.866577,1165.801880 
	C1403.175171,1160.283447 1401.131592,1154.580688 1397.869873,1149.690430 
	C1388.278564,1135.310913 1378.501343,1121.033569 1368.213989,1107.148071 
	C1361.380615,1097.924683 1357.594604,1088.185059 1357.975342,1076.616943 
	C1358.258545,1068.007202 1360.270996,1060.143677 1365.420654,1053.237671 
	C1369.798340,1047.367065 1374.235229,1041.526733 1378.920532,1035.901611 
	C1428.359985,976.546509 1428.475708,887.787231 1379.126099,828.523560 
	C1375.715576,824.427612 1372.141724,820.459900 1368.878906,816.250305 
	C1362.609741,808.162048 1360.441895,802.344666 1359.667236,792.041443 
	C1386.575806,788.149231 1413.535034,784.249695 1440.712891,780.318481 
	C1441.685791,791.037415 1442.242554,801.286682 1443.607910,811.427124 
	C1447.386230,839.486694 1458.684937,864.386719 1476.129517,886.578003 
	C1480.864502,892.601257 1485.727417,898.526428 1490.359985,904.626953 
	C1503.383057,921.776001 1503.303711,941.931396 1490.568848,959.124329 
	C1480.870361,972.217896 1469.844360,984.664185 1462.231812,998.907288 
	C1433.588135,1052.499390 1433.229492,1106.447266 1463.488037,1159.869507 
	C1464.281860,1161.270996 1464.972656,1162.730957 1466.556152,1165.801880 
	C1451.331421,1165.801880 1437.261719,1165.801880 1422.229858,1165.801880 
z"/>
</svg>