<svg version="1.1" id="Layer_1" xmlns="http://www.w3.org/2000/svg" xmlns:xlink="http://www.w3.org/1999/xlink" x="0px" y="0px"
	 width="100%" viewBox="0 0 1080 1080" enable-background="new 0 0 1080 1080" xml:space="preserve">
<path fill="#000000" opacity="1.000000" stroke="none"
	d="
M1081.000000,587.000000
	C1081.000000,751.633240 1081.000000,916.266418 1081.000000,1080.949829
	C721.106567,1080.949829 361.213104,1080.949829 1.000000,1080.949829
	C1.000000,916.973267 1.000000,752.946350 1.403107,588.508911
	C2.871331,595.662720 3.854110,603.239807 5.024384,610.787842
	C6.228923,618.556824 7.616281,626.297424 8.944775,634.478638
	C11.951843,648.615356 14.937778,662.323853 17.948868,676.438721
	C21.627048,688.903931 25.280067,700.962769 28.960896,713.410400
	C35.026493,729.525330 41.064281,745.251526 47.215240,761.310425
	C52.482647,772.277039 57.419529,783.024048 62.867252,793.505493
	C66.522423,800.537903 70.901718,807.194031 75.013329,814.371216
	C83.193451,827.458252 91.069336,840.360291 99.535019,852.863098
	C104.531593,860.242432 110.462250,866.989319 116.030762,874.362732
	C122.263123,882.259521 128.115555,890.108337 134.686584,897.300659
	C144.862427,908.438538 155.528656,919.128479 166.149750,930.298706
	C182.893234,944.734192 199.263855,959.136719 216.148376,972.909302
	C223.912979,979.242798 232.684875,984.341431 241.170151,990.290649
	C241.833633,991.021301 242.282791,991.527100 242.826675,991.891602
	C267.909210,1008.703674 294.394836,1022.965576 321.882141,1035.414062
	C332.243225,1040.106323 342.934052,1043.922119 354.389496,1043.932129
	C478.854553,1044.040283 603.319885,1044.057861 727.784668,1043.842773
	C734.623657,1043.830933 742.099304,1042.915649 748.181763,1040.073608
	C771.218689,1029.309448 793.952759,1017.862671 816.481384,1006.062622
	C825.095398,1001.550781 832.852417,995.402527 841.345215,989.942139
	C842.282227,989.591003 842.938904,989.383240 843.456482,988.991699
	C860.008789,976.470764 876.760010,964.199158 892.999146,951.283691
	C901.153076,944.798645 908.371643,937.137512 916.302368,929.845154
	C928.377014,917.290344 940.350769,905.070190 951.862854,892.429565
	C957.058167,886.724854 961.334045,880.182800 966.316467,873.851196
	C967.337402,873.002563 968.219360,872.428467 968.778137,871.628662
	C978.768311,857.327454 988.817810,843.065796 998.621643,828.637451
	C1001.773621,823.998779 1004.254944,818.904419 1007.331177,813.839355
	C1016.712219,796.099426 1025.805054,778.538574 1035.069336,760.662231
	C1036.385742,757.778137 1037.681519,755.265137 1038.650513,752.631836
	C1043.502930,739.445618 1048.269897,726.227905 1053.321289,712.773254
	C1057.075928,700.360962 1060.576050,688.196716 1064.334473,675.762573
	C1064.932983,674.225098 1065.345703,672.971863 1065.602295,671.687500
	C1068.108276,659.145142 1070.588135,646.597412 1073.342285,633.760620
	C1075.413940,618.917664 1077.187012,604.361267 1079.092407,589.822205
	C1079.224365,588.815369 1080.341187,587.937744 1081.000000,587.000000
z"/>
<path fill="#47453E" opacity="1.000000" stroke="none"
	d="
M1081.000000,516.000000
	C1081.000000,536.354248 1081.000000,556.708435 1080.531494,577.517090
	C1077.397461,577.981018 1074.731812,577.998840 1072.066284,577.998840
	C715.044189,578.000061 358.022095,578.000000 1.000000,578.000000
	C1.000000,557.645752 1.000000,537.291565 1.468657,516.468628
	C361.624878,516.000000 721.312439,516.000000 1081.000000,516.000000
z"/>
<path fill="#000000" opacity="1.000000" stroke="none"
	d="
M588.000000,1.000009
	C752.262512,1.000000 916.525085,1.000000 1081.000000,1.000000
	C1081.000000,165.358170 1081.000000,329.716431 1080.584106,494.526398
	C1079.777832,493.165100 1079.265381,491.368530 1079.018555,489.536224
	C1078.005615,482.018463 1077.073608,474.489746 1076.068359,466.527588
	C1072.391113,447.380646 1068.757568,428.671173 1065.074219,409.554901
	C1062.961426,401.427795 1060.898315,393.707520 1058.863037,385.609192
	C1056.968628,379.812286 1055.046265,374.393433 1053.068726,368.585632
	C1050.619629,361.125214 1048.225464,354.053741 1045.750488,346.636108
	C1041.723999,337.187561 1037.778320,328.085205 1033.757080,318.635803
	C1029.732178,310.189545 1025.782959,302.090332 1021.771606,293.647034
	C1018.514221,287.524719 1015.318909,281.746490 1011.964539,275.650330
	C1007.574158,268.540497 1003.342896,261.748535 999.050415,254.599121
	C993.963989,246.727066 988.938904,239.212448 983.913452,231.316101
	C981.263733,227.236679 978.744019,223.437286 975.937622,219.862885
	C970.417358,212.831909 964.737854,205.925964 959.055664,198.622238
	C948.007629,186.147736 937.028137,174.019287 925.912842,161.588257
	C917.555176,153.509048 909.333191,145.732407 900.966797,137.640839
	C894.362549,131.862518 888.005005,126.271797 881.411621,120.974586
	C875.766663,116.439308 869.851501,112.240303 863.913574,107.579239
	C853.945923,100.440559 844.341736,93.264946 834.235901,86.883797
	C823.079895,79.839478 811.463806,73.523659 799.886108,66.576340
	C788.597168,60.758034 777.671021,54.791134 766.296326,49.858536
	C749.345398,42.507893 732.401917,34.885567 714.861755,29.214525
	C693.927124,22.446012 672.440063,17.315460 651.054993,12.031227
	C631.161133,7.115460 610.927795,4.018477 590.423279,2.894786
	C589.583435,2.848763 588.806335,1.657641 588.000000,1.000009
z"/>
<path fill="#000000" opacity="1.000000" stroke="none"
	d="
M1.000004,494.000000
	C1.000000,329.737549 1.000000,165.475128 1.000000,1.000000
	C165.024841,1.000000 329.049774,1.000000 493.865906,1.355597
	C490.055756,2.464815 485.467926,3.316543 480.850494,3.953199
	C468.280731,5.686319 455.479004,6.374998 443.167480,9.208258
	C418.692871,14.840621 394.370300,21.230330 370.217621,28.122681
	C358.663818,31.419746 347.412201,36.069466 336.429840,41.009396
	C318.098846,49.254799 300.093994,58.225330 281.584167,66.933128
	C272.708588,71.888596 263.952087,76.422462 255.750244,81.801964
	C242.951797,90.196327 230.529388,99.163994 217.594269,107.934013
	C213.809143,110.651840 210.302017,113.233833 206.960297,116.014595
	C198.251572,123.261444 189.615356,130.595398 180.638763,138.026276
	C172.200485,146.070557 164.073669,153.983170 155.636063,162.026413
	C146.951248,171.211441 138.507385,180.202789 130.243164,189.356323
	C127.546661,192.342972 125.318245,195.752258 122.565536,199.096573
	C120.462730,201.352036 118.537788,203.382492 116.900993,205.623413
	C110.580055,214.277344 104.351112,222.998474 97.815926,231.846359
	C92.657829,239.651764 87.771683,247.305374 82.573608,255.102142
	C78.133278,262.152954 74.004868,269.060577 69.577377,276.144165
	C66.241028,282.210663 63.203758,288.101196 59.999901,294.310364
	C55.944729,302.746887 52.056152,310.864838 47.996334,319.303284
	C43.939659,328.743378 40.054222,337.862915 36.080353,347.354095
	C33.623581,354.470337 31.255245,361.214996 28.593058,368.192566
	C26.587740,374.279388 24.876274,380.133301 23.078495,386.362366
	C20.953529,394.478912 18.914881,402.220337 16.590199,410.210052
	C16.061466,411.580536 15.787043,412.696930 15.580806,413.825745
	C12.344728,431.537933 9.117431,449.251709 5.597719,467.250916
	C4.534045,475.471313 3.818158,483.412506 2.912139,491.331940
	C2.803473,492.281799 1.662503,493.113525 1.000004,494.000000
z"/>
<path fill="#3F3D37" opacity="1.000000" stroke="none"
	d="
M1.000000,578.454102
	C358.022095,578.000000 715.044189,578.000061 1072.066284,577.998840
	C1074.731812,577.998840 1077.397461,577.981018 1080.531494,577.985779
	C1081.000000,580.700012 1081.000000,583.400024 1081.000000,586.550049
	C1080.341187,587.937744 1079.224365,588.815369 1079.092407,589.822205
	C1077.187012,604.361267 1075.413940,618.917664 1072.954468,633.585510
	C1070.501831,633.467407 1068.703735,633.029053 1066.905762,633.028931
	C716.351257,632.998901 365.796753,632.998169 15.242247,633.043396
	C13.136002,633.043640 11.029841,633.700317 8.923641,634.050476
	C7.616281,626.297424 6.228923,618.556824 5.024384,610.787842
	C3.854110,603.239807 2.871331,595.662720 1.403107,588.049194
	C1.000000,584.969421 1.000000,581.938782 1.000000,578.454102
z"/>
<path fill="#4F4C45" opacity="1.000000" stroke="none"
	d="
M1.000004,494.468567
	C1.662503,493.113525 2.803473,492.281799 2.912139,491.331940
	C3.818158,483.412506 4.534045,475.471313 6.075351,467.260742
	C349.602570,466.989868 692.361755,466.995361 1035.120972,466.998535
	C1048.784546,466.998657 1062.448242,466.976746 1076.111816,466.965088
	C1077.073608,474.489746 1078.005615,482.018463 1079.018555,489.536224
	C1079.265381,491.368530 1079.777832,493.165100 1080.584106,494.989044
	C1081.000000,501.687653 1081.000000,508.375275 1081.000000,515.531494
	C721.312439,516.000000 361.624878,516.000000 1.468657,516.000000
	C1.000000,508.979034 1.000000,501.958099 1.000004,494.468567
z"/>
<path fill="#E7DAAD" opacity="1.000000" stroke="none"
	d="
M281.951843,66.890594
	C300.093994,58.225330 318.098846,49.254799 336.429840,41.009396
	C347.412201,36.069466 358.663818,31.419746 370.217621,28.122681
	C394.370300,21.230330 418.692871,14.840621 443.167480,9.208258
	C455.479004,6.374998 468.280731,5.686319 480.850494,3.953199
	C485.467926,3.316543 490.055756,2.464815 494.328552,1.355597
	C525.020874,1.000000 556.041809,1.000000 587.531372,1.000009
	C588.806335,1.657641 589.583435,2.848763 590.423279,2.894786
	C610.927795,4.018477 631.161133,7.115460 651.054993,12.031227
	C672.440063,17.315460 693.927124,22.446012 714.861755,29.214525
	C732.401917,34.885567 749.345398,42.507893 766.296326,49.858536
	C777.671021,54.791134 788.597168,60.758034 799.755676,66.959579
	C797.454346,68.104675 795.121521,68.943390 792.788452,68.944244
	C624.992554,69.005440 457.196686,69.000061 289.400818,68.999046
	C287.901276,68.999039 286.336426,69.245842 284.923248,68.892624
	C283.834045,68.620392 282.935272,67.586067 281.951843,66.890594
z"/>
<path fill="#201F1C" opacity="1.000000" stroke="none"
	d="
M1007.043030,814.018494
	C1004.254944,818.904419 1001.773621,823.998779 998.621643,828.637451
	C988.817810,843.065796 978.768311,857.327454 968.778137,871.628662
	C968.219360,872.428467 967.337402,873.002563 965.902100,873.775146
	C962.735352,873.579102 960.272522,873.036316 957.809509,873.035950
	C679.988953,872.997803 402.168365,872.997070 124.347786,873.042297
	C121.556099,873.042786 118.764503,873.680420 115.972855,874.020569
	C110.462250,866.989319 104.531593,860.242432 99.535019,852.863098
	C91.069336,840.360291 83.193451,827.458252 75.486511,814.365356
	C386.283264,814.010559 696.663147,814.014526 1007.043030,814.018494
z"/>
<path fill="#272522" opacity="1.000000" stroke="none"
	d="
M1007.331177,813.839355
	C696.663147,814.014526 386.283264,814.010559 75.430206,814.012573
	C70.901718,807.194031 66.522423,800.537903 62.867252,793.505493
	C57.419529,783.024048 52.482647,772.277039 47.673424,761.317749
	C163.337677,760.994995 278.656921,761.001526 393.976166,760.999146
	C607.616760,760.994690 821.257324,760.985107 1034.897949,760.977722
	C1025.805054,778.538574 1016.712219,796.099426 1007.331177,813.839355
z"/>
<path fill="#2E2D29" opacity="1.000000" stroke="none"
	d="
M1035.069336,760.662231
	C821.257324,760.985107 607.616760,760.994690 393.976166,760.999146
	C278.656921,761.001526 163.337677,760.994995 47.560249,760.985107
	C41.064281,745.251526 35.026493,729.525330 29.435699,713.403564
	C140.681839,713.005371 251.480972,712.998718 362.280121,713.000793
	C592.542358,713.005188 822.804626,713.014160 1053.066895,713.021240
	C1048.269897,726.227905 1043.502930,739.445618 1038.650513,752.631836
	C1037.681519,755.265137 1036.385742,757.778137 1035.069336,760.662231
z"/>
<path fill="#383631" opacity="1.000000" stroke="none"
	d="
M8.944776,634.478638
	C11.029841,633.700317 13.136002,633.043640 15.242247,633.043396
	C365.796753,632.998169 716.351257,632.998901 1066.905762,633.028931
	C1068.703735,633.029053 1070.501831,633.467407 1072.687744,633.876221
	C1070.588135,646.597412 1068.108276,659.145142 1065.602295,671.687500
	C1065.345703,672.971863 1064.932983,674.225098 1063.859009,675.752258
	C728.554138,676.007874 393.982880,676.003601 59.411621,676.001404
	C45.582317,676.001343 31.753016,676.021606 17.923712,676.032410
	C14.937778,662.323853 11.951843,648.615356 8.944776,634.478638
z"/>
<path fill="#171614" opacity="1.000000" stroke="none"
	d="
M116.030777,874.362732
	C118.764503,873.680420 121.556099,873.042786 124.347786,873.042297
	C402.168365,872.997070 679.988953,872.997803 957.809509,873.035950
	C960.272522,873.036316 962.735352,873.579102 965.612671,873.944702
	C961.334045,880.182800 957.058167,886.724854 951.862854,892.429565
	C940.350769,905.070190 928.377014,917.290344 915.873413,929.838135
	C910.025452,929.662903 904.895752,929.042542 899.765930,929.041504
	C664.302063,928.993713 428.838165,928.988647 193.374313,929.042542
	C184.245132,929.044617 175.116074,929.672180 165.986969,930.008301
	C155.528656,919.128479 144.862427,908.438538 134.686584,897.300659
	C128.115555,890.108337 122.263123,882.259521 116.030777,874.362732
z"/>
<path fill="#121110" opacity="1.000000" stroke="none"
	d="
M166.149750,930.298706
	C175.116074,929.672180 184.245132,929.044617 193.374313,929.042542
	C428.838165,928.988647 664.302063,928.993713 899.765930,929.041504
	C904.895752,929.042542 910.025452,929.662903 915.584229,930.001343
	C908.371643,937.137512 901.153076,944.798645 892.999146,951.283691
	C876.760010,964.199158 860.008789,976.470764 843.456482,988.991699
	C842.938904,989.383240 842.282227,989.591003 841.019714,989.684692
	C838.875122,989.322510 837.401245,989.017761 835.927368,989.017639
	C639.365601,988.996399 442.803802,988.994873 246.242035,989.038940
	C244.494614,989.039368 242.747345,989.665833 241.000000,990.000000
	C232.684875,984.341431 223.912979,979.242798 216.148376,972.909302
	C199.263855,959.136719 182.893234,944.734192 166.149750,930.298706
z"/>
<path fill="#33322D" opacity="1.000000" stroke="none"
	d="
M17.948872,676.438721
	C31.753016,676.021606 45.582317,676.001343 59.411621,676.001404
	C393.982880,676.003601 728.554138,676.007874 1063.600830,676.022095
	C1060.576050,688.196716 1057.075928,700.360962 1053.321289,712.773254
	C822.804626,713.014160 592.542358,713.005188 362.280121,713.000793
	C251.480972,712.998718 140.681839,713.005371 29.407888,713.014832
	C25.280067,700.962769 21.627048,688.903931 17.948872,676.438721
z"/>
<path fill="#0A0909" opacity="1.000000" stroke="none"
	d="
M241.170151,990.290649
	C242.747345,989.665833 244.494614,989.039368 246.242035,989.038940
	C442.803802,988.994873 639.365601,988.996399 835.927368,989.017639
	C837.401245,989.017761 838.875122,989.322510 840.674500,989.742432
	C832.852417,995.402527 825.095398,1001.550781 816.481384,1006.062622
	C793.952759,1017.862671 771.218689,1029.309448 748.181763,1040.073608
	C742.099304,1042.915649 734.623657,1043.830933 727.784668,1043.842773
	C603.319885,1044.057861 478.854553,1044.040283 354.389496,1043.932129
	C342.934052,1043.922119 332.243225,1040.106323 321.882141,1035.414062
	C294.394836,1022.965576 267.909210,1008.703674 242.826675,991.891602
	C242.282791,991.527100 241.833633,991.021301 241.170151,990.290649
z"/>
<path fill="#54514A" opacity="1.000000" stroke="none"
	d="
M1076.068359,466.527588
	C1062.448242,466.976746 1048.784546,466.998657 1035.120972,466.998535
	C692.361755,466.995361 349.602570,466.989868 6.365746,466.974945
	C9.117431,449.251709 12.344728,431.537933 15.580806,413.825745
	C15.787043,412.696930 16.061466,411.580536 17.066050,410.222839
	C366.093536,409.991425 714.359131,409.995544 1062.624756,409.998138
	C1063.457764,409.998138 1064.290894,409.974396 1065.123901,409.961731
	C1068.757568,428.671173 1072.391113,447.380646 1076.068359,466.527588
z"/>
<path fill="#B1A889" opacity="1.000000" stroke="none"
	d="
M122.875755,198.968246
	C125.318245,195.752258 127.546661,192.342972 130.243164,189.356323
	C138.507385,180.202789 146.951248,171.211441 155.955185,162.300964
	C158.719940,162.630142 160.854721,162.976349 162.989624,162.977249
	C229.977325,163.005737 296.965027,163.000626 363.952759,163.000626
	C548.918884,163.000626 733.884949,163.004791 918.851074,162.954559
	C921.250305,162.953918 923.649475,162.260773 926.048645,161.890839
	C937.028137,174.019287 948.007629,186.147736 958.578857,198.630219
	C787.879150,198.989487 617.587585,198.999710 447.296021,198.998199
	C339.155945,198.997253 231.015839,198.978836 122.875755,198.968246
z"/>
<path fill="#A1997E" opacity="1.000000" stroke="none"
	d="
M122.565536,199.096573
	C231.015839,198.978836 339.155945,198.997253 447.296021,198.998199
	C617.587585,198.999710 787.879150,198.989487 958.647461,198.976257
	C964.737854,205.925964 970.417358,212.831909 975.937622,219.862885
	C978.744019,223.437286 981.263733,227.236679 983.385132,231.380951
	C980.526184,231.885010 978.195251,231.992783 975.864319,231.992844
	C685.933533,232.000381 396.002808,232.000793 106.072044,231.987335
	C103.410645,231.987213 100.749268,231.796356 98.087875,231.694550
	C104.351112,222.998474 110.580055,214.277344 116.900993,205.623413
	C118.537788,203.382492 120.462730,201.352036 122.565536,199.096573
z"/>
<path fill="#736F60" opacity="1.000000" stroke="none"
	d="
M36.168789,346.982483
	C40.054222,337.862915 43.939659,328.743378 48.453468,319.307983
	C377.332123,318.989075 705.582397,318.985962 1033.832642,318.982880
	C1037.778320,328.085205 1041.723999,337.187561 1045.293579,346.640869
	C708.667908,346.988708 372.418365,346.985596 36.168789,346.982483
z"/>
<path fill="#5B5850" opacity="1.000000" stroke="none"
	d="
M1065.074219,409.554932
	C1064.290894,409.974396 1063.457764,409.998138 1062.624756,409.998138
	C714.359131,409.995544 366.093536,409.991425 17.352081,409.974487
	C18.914881,402.220337 20.953529,394.478912 23.493874,386.371063
	C28.623514,386.336395 33.251423,386.958069 37.879414,386.958679
	C370.238037,387.004059 702.596680,387.007050 1034.955322,386.957672
	C1042.915283,386.956482 1050.875122,386.324829 1058.835083,385.987244
	C1060.898315,393.707520 1062.961426,401.427795 1065.074219,409.554932
z"/>
<path fill="#D2C69F" opacity="1.000000" stroke="none"
	d="
M281.584167,66.933128
	C282.935272,67.586067 283.834045,68.620392 284.923248,68.892624
	C286.336426,69.245842 287.901276,68.999039 289.400818,68.999046
	C457.196686,69.000061 624.992554,69.005440 792.788452,68.944244
	C795.121521,68.943390 797.454346,68.104675 799.917725,67.273781
	C811.463806,73.523659 823.079895,79.839478 834.235901,86.883797
	C844.341736,93.264946 853.945923,100.440559 863.595032,107.854942
	C861.950928,108.630394 860.482971,108.979935 859.015076,108.980103
	C647.057861,109.004341 435.100647,109.005882 223.143463,108.957161
	C221.411438,108.956764 219.679581,108.260239 217.947647,107.888748
	C230.529388,99.163994 242.951797,90.196327 255.750244,81.801964
	C263.952087,76.422462 272.708588,71.888596 281.584167,66.933128
z"/>
<path fill="#7F7968" opacity="1.000000" stroke="none"
	d="
M1033.757080,318.635803
	C705.582397,318.985962 377.332123,318.989075 48.624710,318.987488
	C52.056152,310.864838 55.944729,302.746887 60.398918,294.392090
	C63.092945,294.436768 65.221336,294.964783 67.349800,294.965027
	C383.054993,295.001587 698.760193,295.002258 1014.465393,294.958252
	C1016.921509,294.957916 1019.377563,294.327423 1021.833618,293.991150
	C1025.782959,302.090332 1029.732178,310.189545 1033.757080,318.635803
z"/>
<path fill="#696559" opacity="1.000000" stroke="none"
	d="
M36.080353,347.354095
	C372.418365,346.985596 708.667908,346.988708 1045.374390,346.987061
	C1048.225464,354.053741 1050.619629,361.125214 1052.590576,368.592255
	C1033.834961,368.991882 1015.502563,368.999420 997.170105,368.999451
	C677.184875,369.000183 357.199646,369.002625 37.214413,368.956970
	C34.438530,368.956573 31.662741,368.306427 28.886909,367.959625
	C31.255245,361.214996 33.623581,354.470337 36.080353,347.354095
z"/>
<path fill="#979078" opacity="1.000000" stroke="none"
	d="
M97.815926,231.846359
	C100.749268,231.796356 103.410645,231.987213 106.072044,231.987335
	C396.002808,232.000793 685.933533,232.000381 975.864319,231.992844
	C978.195251,231.992783 980.526184,231.885010 983.385498,231.762695
	C988.938904,239.212448 993.963989,246.727066 998.659790,254.767517
	C996.532227,255.528793 994.733948,255.970367 992.935730,255.970551
	C691.694336,256.000946 390.452911,256.001862 89.211525,255.956741
	C87.102806,255.956436 84.994194,255.305893 82.885529,254.958969
	C87.771683,247.305374 92.657829,239.651764 97.815926,231.846359
z"/>
<path fill="#C5BA96" opacity="1.000000" stroke="none"
	d="
M217.594269,107.934006
	C219.679581,108.260239 221.411438,108.956764 223.143463,108.957161
	C435.100647,109.005882 647.057861,109.004341 859.015076,108.980103
	C860.482971,108.979935 861.950928,108.630394 863.737305,108.168289
	C869.851501,112.240303 875.766663,116.439308 881.411621,120.974586
	C888.005005,126.271797 894.362549,131.862518 900.576416,137.809296
	C898.199097,138.528427 896.067993,138.966675 893.936218,138.969604
	C862.112549,139.013550 830.288879,139.000000 798.465149,139.000000
	C595.026611,139.000000 391.588074,139.003799 188.149536,138.954178
	C185.749680,138.953583 183.349976,138.263077 180.950211,137.894623
	C189.615356,130.595398 198.251572,123.261444 206.960297,116.014595
	C210.302017,113.233833 213.809143,110.651840 217.594269,107.934006
z"/>
<path fill="#8E8772" opacity="1.000000" stroke="none"
	d="
M82.573608,255.102142
	C84.994194,255.305893 87.102806,255.956436 89.211525,255.956741
	C390.452911,256.001862 691.694336,256.000946 992.935730,255.970551
	C994.733948,255.970367 996.532227,255.528793 998.721069,255.124954
	C1003.342896,261.748535 1007.574158,268.540497 1011.487549,275.658447
	C766.390015,275.989655 521.610413,275.997406 276.830841,275.998352
	C207.846054,275.998596 138.861252,275.978790 69.876457,275.968201
	C74.004868,269.060577 78.133278,262.152954 82.573608,255.102142
z"/>
<path fill="#625F55" opacity="1.000000" stroke="none"
	d="
M28.593056,368.192566
	C31.662741,368.306427 34.438530,368.956573 37.214413,368.956970
	C357.199646,369.002625 677.184875,369.000183 997.170105,368.999451
	C1015.502563,368.999420 1033.834961,368.991882 1052.645630,368.981201
	C1055.046265,374.393433 1056.968628,379.812286 1058.863037,385.609192
	C1050.875122,386.324829 1042.915283,386.956482 1034.955322,386.957672
	C702.596680,387.007050 370.238037,387.004059 37.879414,386.958679
	C33.251423,386.958069 28.623514,386.336395 23.580189,385.995911
	C24.876274,380.133301 26.587740,374.279388 28.593056,368.192566
z"/>
<path fill="#87816D" opacity="1.000000" stroke="none"
	d="
M69.577377,276.144165
	C138.861252,275.978790 207.846054,275.998596 276.830841,275.998352
	C521.610413,275.997406 766.390015,275.989655 1011.646606,275.976379
	C1015.318909,281.746490 1018.514221,287.524719 1021.771606,293.647034
	C1019.377563,294.327423 1016.921509,294.957916 1014.465393,294.958252
	C698.760193,295.002258 383.054993,295.001587 67.349800,294.965027
	C65.221336,294.964783 63.092945,294.436768 60.565506,294.073456
	C63.203758,288.101196 66.241028,282.210663 69.577377,276.144165
z"/>
<path fill="#BDB391" opacity="1.000000" stroke="none"
	d="
M180.638763,138.026276
	C183.349976,138.263077 185.749680,138.953583 188.149536,138.954178
	C391.588074,139.003799 595.026611,139.000000 798.465149,139.000000
	C830.288879,139.000000 862.112549,139.013550 893.936218,138.969604
	C896.067993,138.966675 898.199097,138.528427 900.720825,138.124207
	C909.333191,145.732407 917.555176,153.509048 925.912842,161.588272
	C923.649475,162.260773 921.250305,162.953918 918.851074,162.954559
	C733.884949,163.004791 548.918884,163.000626 363.952759,163.000626
	C296.965027,163.000626 229.977325,163.005737 162.989624,162.977249
	C160.854721,162.976349 158.719940,162.630142 156.265991,162.170349
	C164.073669,153.983170 172.200485,146.070557 180.638763,138.026276
z"/>
</svg>
